<svg width="42" height="27" viewBox="0 0 42 27" fill="none" xmlns="http://www.w3.org/2000/svg">
<path d="M41.9344 6.27344V3.48438C40.3102 3.48438 38.9813 2.15547 38.9813 0.53125H3.01875V0.626407C2.96625 2.20797 1.66031 3.48438 0.0689087 3.48438V6.27344C1.22391 6.67703 2.05735 7.77297 2.05735 9.0625C2.05735 10.352 1.22063 11.448 0.0689087 11.8516V14.808C1.22391 15.2116 2.05735 16.3075 2.05735 17.597C2.05735 18.8833 1.22063 19.9825 0.0689087 20.3861V23.1719C1.66688 23.1719 2.96625 24.4417 3.01547 26.0298V26.125H38.978V26.1217C38.978 24.4909 40.3003 23.1719 41.9311 23.1719V20.3828C40.7761 19.9792 39.9427 18.8833 39.9427 17.5938C39.9427 16.3075 40.7794 15.2083 41.9311 14.8047V11.8516C40.7761 11.448 39.9427 10.352 39.9427 9.0625C39.9427 7.77297 40.7794 6.67703 41.9344 6.27344Z" fill="#4766FF"/>
</svg>
