<svg width="385" height="42" viewBox="0 0 385 42" fill="none" xmlns="http://www.w3.org/2000/svg">
<path d="M52.368 31L46.544 15.128H50.832L54.864 27.128L58.896 15.128H63.184L57.328 31H52.368ZM70.0423 31.384C68.5063 31.384 67.1196 31.032 65.8823 30.328C64.6663 29.624 63.6956 28.6533 62.9703 27.416C62.2663 26.1573 61.9143 24.7067 61.9143 23.064C61.9143 21.4213 62.2769 19.9813 63.0023 18.744C63.7276 17.4853 64.6983 16.504 65.9143 15.8C67.1516 15.096 68.5383 14.744 70.0743 14.744C71.5889 14.744 72.9543 15.096 74.1703 15.8C75.4076 16.504 76.3783 17.4853 77.0823 18.744C77.8076 19.9813 78.1703 21.4213 78.1703 23.064C78.1703 24.7067 77.8076 26.1573 77.0823 27.416C76.3783 28.6533 75.4076 29.624 74.1703 30.328C72.9329 31.032 71.5569 31.384 70.0423 31.384ZM70.0423 27.832C71.1089 27.832 72.0369 27.4373 72.8263 26.648C73.6156 25.8373 74.0103 24.6427 74.0103 23.064C74.0103 21.4853 73.6156 20.3013 72.8263 19.512C72.0369 18.7013 71.1196 18.296 70.0743 18.296C68.9863 18.296 68.0476 18.7013 67.2583 19.512C66.4903 20.3013 66.1063 21.4853 66.1063 23.064C66.1063 24.6427 66.4903 25.8373 67.2583 26.648C68.0476 27.4373 68.9756 27.832 70.0423 27.832ZM85.2245 31.384C83.2405 31.384 81.7045 30.7653 80.6165 29.528C79.5498 28.2907 79.0165 26.4773 79.0165 24.088V15.128H83.0805V23.704C83.0805 25.0693 83.3578 26.1147 83.9125 26.84C84.4672 27.5653 85.3418 27.928 86.5365 27.928C87.6672 27.928 88.5952 27.5227 89.3205 26.712C90.0672 25.9013 90.4405 24.7707 90.4405 23.32V15.128H94.5365V31H90.9205L90.6005 28.312C90.1098 29.2507 89.3952 29.9973 88.4565 30.552C87.5392 31.1067 86.4618 31.384 85.2245 31.384ZM103.957 31.384C102.336 31.384 100.907 31.032 99.6693 30.328C98.4319 29.624 97.4506 28.6427 96.7252 27.384C96.0212 26.1253 95.6692 24.6853 95.6692 23.064C95.6692 21.4427 96.0212 20.0027 96.7252 18.744C97.4506 17.4853 98.4319 16.504 99.6693 15.8C100.907 15.096 102.336 14.744 103.957 14.744C105.984 14.744 107.691 15.2773 109.077 16.344C110.464 17.3893 111.349 18.84 111.733 20.696H107.413C107.2 19.928 106.773 19.3307 106.133 18.904C105.515 18.456 104.779 18.232 103.925 18.232C102.795 18.232 101.835 18.6587 101.045 19.512C100.256 20.3653 99.8612 21.5493 99.8612 23.064C99.8612 24.5787 100.256 25.7627 101.045 26.616C101.835 27.4693 102.795 27.896 103.925 27.896C104.779 27.896 105.515 27.6827 106.133 27.256C106.773 26.8293 107.2 26.2213 107.413 25.432H111.733C111.349 27.224 110.464 28.664 109.077 29.752C107.691 30.84 105.984 31.384 103.957 31.384ZM112.809 31V7.96H116.905V17.56C117.438 16.6853 118.153 16.0027 119.049 15.512C119.966 15 121.011 14.744 122.185 14.744C124.147 14.744 125.662 15.3627 126.729 16.6C127.817 17.8373 128.361 19.6507 128.361 22.04V31H124.297V22.424C124.297 21.0587 124.019 20.0133 123.465 19.288C122.931 18.5627 122.078 18.2 120.905 18.2C119.753 18.2 118.793 18.6053 118.025 19.416C117.278 20.2267 116.905 21.3573 116.905 22.808V31H112.809ZM137.429 31.384C135.829 31.384 134.411 31.0427 133.173 30.36C131.936 29.6773 130.965 28.7173 130.261 27.48C129.557 26.2427 129.205 24.8133 129.205 23.192C129.205 21.5493 129.547 20.088 130.229 18.808C130.933 17.528 131.893 16.536 133.109 15.832C134.347 15.1067 135.797 14.744 137.461 14.744C139.019 14.744 140.395 15.0853 141.589 15.768C142.784 16.4507 143.712 17.3893 144.373 18.584C145.056 19.7573 145.397 21.0693 145.397 22.52C145.397 22.7547 145.387 23 145.365 23.256C145.365 23.512 145.355 23.7787 145.333 24.056H133.269C133.355 25.2933 133.781 26.264 134.549 26.968C135.339 27.672 136.288 28.024 137.397 28.024C138.229 28.024 138.923 27.8427 139.477 27.48C140.053 27.096 140.48 26.6053 140.757 26.008H144.917C144.619 27.0107 144.117 27.928 143.413 28.76C142.731 29.5707 141.877 30.2107 140.853 30.68C139.851 31.1493 138.709 31.384 137.429 31.384ZM137.461 18.072C136.459 18.072 135.573 18.36 134.805 18.936C134.037 19.4907 133.547 20.344 133.333 21.496H141.237C141.173 20.4507 140.789 19.6187 140.085 19C139.381 18.3813 138.507 18.072 137.461 18.072ZM146.282 31V15.128H149.93L150.314 18.104C150.89 17.08 151.669 16.2693 152.65 15.672C153.653 15.0533 154.826 14.744 156.17 14.744V19.064H155.019C154.122 19.064 153.322 19.2027 152.618 19.48C151.914 19.7573 151.36 20.2373 150.954 20.92C150.57 21.6027 150.378 22.552 150.378 23.768V31H146.282ZM162.97 31.384C161.562 31.384 160.325 31.16 159.258 30.712C158.191 30.2427 157.338 29.6027 156.698 28.792C156.058 27.9813 155.674 27.0427 155.546 25.976H159.674C159.802 26.5947 160.143 27.128 160.698 27.576C161.274 28.0027 162.01 28.216 162.906 28.216C163.802 28.216 164.453 28.0347 164.858 27.672C165.285 27.3093 165.498 26.8933 165.498 26.424C165.498 25.7413 165.199 25.2827 164.602 25.048C164.005 24.792 163.173 24.5467 162.106 24.312C161.423 24.1627 160.73 23.9813 160.026 23.768C159.322 23.5547 158.671 23.288 158.074 22.968C157.498 22.6267 157.029 22.2 156.666 21.688C156.303 21.1547 156.122 20.504 156.122 19.736C156.122 18.328 156.677 17.144 157.786 16.184C158.917 15.224 160.495 14.744 162.522 14.744C164.399 14.744 165.893 15.1813 167.002 16.056C168.133 16.9307 168.805 18.136 169.018 19.672H165.146C164.911 18.4987 164.026 17.912 162.49 17.912C161.722 17.912 161.125 18.0613 160.698 18.36C160.293 18.6587 160.09 19.032 160.09 19.48C160.09 19.9493 160.399 20.3227 161.018 20.6C161.637 20.8773 162.458 21.1333 163.482 21.368C164.591 21.624 165.605 21.912 166.522 22.232C167.461 22.5307 168.207 22.9893 168.762 23.608C169.317 24.2053 169.594 25.0693 169.594 26.2C169.615 27.1813 169.359 28.0667 168.826 28.856C168.293 29.6453 167.525 30.264 166.522 30.712C165.519 31.16 164.335 31.384 162.97 31.384ZM309.43 31.384C307.808 31.384 306.379 31.032 305.142 30.328C303.904 29.624 302.923 28.6427 302.198 27.384C301.494 26.1253 301.142 24.6853 301.142 23.064C301.142 21.4427 301.494 20.0027 302.198 18.744C302.923 17.4853 303.904 16.504 305.142 15.8C306.379 15.096 307.808 14.744 309.43 14.744C311.456 14.744 313.163 15.2773 314.55 16.344C315.936 17.3893 316.822 18.84 317.206 20.696H312.886C312.672 19.928 312.246 19.3307 311.606 18.904C310.987 18.456 310.251 18.232 309.398 18.232C308.267 18.232 307.307 18.6587 306.518 19.512C305.728 20.3653 305.334 21.5493 305.334 23.064C305.334 24.5787 305.728 25.7627 306.518 26.616C307.307 27.4693 308.267 27.896 309.398 27.896C310.251 27.896 310.987 27.6827 311.606 27.256C312.246 26.8293 312.672 26.2213 312.886 25.432H317.206C316.822 27.224 315.936 28.664 314.55 29.752C313.163 30.84 311.456 31.384 309.43 31.384ZM325.897 31.384C324.361 31.384 322.975 31.032 321.737 30.328C320.521 29.624 319.551 28.6533 318.825 27.416C318.121 26.1573 317.769 24.7067 317.769 23.064C317.769 21.4213 318.132 19.9813 318.857 18.744C319.583 17.4853 320.553 16.504 321.769 15.8C323.007 15.096 324.393 14.744 325.929 14.744C327.444 14.744 328.809 15.096 330.025 15.8C331.263 16.504 332.233 17.4853 332.937 18.744C333.663 19.9813 334.025 21.4213 334.025 23.064C334.025 24.7067 333.663 26.1573 332.937 27.416C332.233 28.6533 331.263 29.624 330.025 30.328C328.788 31.032 327.412 31.384 325.897 31.384ZM325.897 27.832C326.964 27.832 327.892 27.4373 328.681 26.648C329.471 25.8373 329.865 24.6427 329.865 23.064C329.865 21.4853 329.471 20.3013 328.681 19.512C327.892 18.7013 326.975 18.296 325.929 18.296C324.841 18.296 323.903 18.7013 323.113 19.512C322.345 20.3013 321.961 21.4853 321.961 23.064C321.961 24.6427 322.345 25.8373 323.113 26.648C323.903 27.4373 324.831 27.832 325.897 27.832ZM342.424 31.384C340.93 31.384 339.597 31.0213 338.424 30.296C337.25 29.5707 336.322 28.5787 335.64 27.32C334.957 26.0613 334.616 24.632 334.616 23.032C334.616 21.432 334.957 20.0133 335.64 18.776C336.322 17.5173 337.25 16.536 338.424 15.832C339.597 15.1067 340.93 14.744 342.424 14.744C343.618 14.744 344.664 14.968 345.56 15.416C346.456 15.864 347.181 16.4933 347.736 17.304V7.96H351.832V31H348.184L347.736 28.728C347.224 29.432 346.541 30.0507 345.688 30.584C344.856 31.1173 343.768 31.384 342.424 31.384ZM343.288 27.8C344.61 27.8 345.688 27.3627 346.52 26.488C347.373 25.592 347.8 24.4507 347.8 23.064C347.8 21.6773 347.373 20.5467 346.52 19.672C345.688 18.776 344.61 18.328 343.288 18.328C341.986 18.328 340.909 18.7653 340.056 19.64C339.202 20.5147 338.776 21.6453 338.776 23.032C338.776 24.4187 339.202 25.56 340.056 26.456C340.909 27.352 341.986 27.8 343.288 27.8ZM361.154 31.384C359.554 31.384 358.136 31.0427 356.898 30.36C355.661 29.6773 354.69 28.7173 353.986 27.48C353.282 26.2427 352.93 24.8133 352.93 23.192C352.93 21.5493 353.272 20.088 353.954 18.808C354.658 17.528 355.618 16.536 356.834 15.832C358.072 15.1067 359.522 14.744 361.186 14.744C362.744 14.744 364.12 15.0853 365.314 15.768C366.509 16.4507 367.437 17.3893 368.098 18.584C368.781 19.7573 369.122 21.0693 369.122 22.52C369.122 22.7547 369.112 23 369.09 23.256C369.09 23.512 369.08 23.7787 369.058 24.056H356.994C357.08 25.2933 357.506 26.264 358.274 26.968C359.064 27.672 360.013 28.024 361.122 28.024C361.954 28.024 362.648 27.8427 363.202 27.48C363.778 27.096 364.205 26.6053 364.482 26.008H368.642C368.344 27.0107 367.842 27.928 367.138 28.76C366.456 29.5707 365.602 30.2107 364.578 30.68C363.576 31.1493 362.434 31.384 361.154 31.384ZM361.186 18.072C360.184 18.072 359.298 18.36 358.53 18.936C357.762 19.4907 357.272 20.344 357.058 21.496H364.962C364.898 20.4507 364.514 19.6187 363.81 19C363.106 18.3813 362.232 18.072 361.186 18.072ZM376.567 31.384C375.159 31.384 373.922 31.16 372.855 30.712C371.789 30.2427 370.935 29.6027 370.295 28.792C369.655 27.9813 369.271 27.0427 369.143 25.976H373.271C373.399 26.5947 373.741 27.128 374.295 27.576C374.871 28.0027 375.607 28.216 376.503 28.216C377.399 28.216 378.05 28.0347 378.455 27.672C378.882 27.3093 379.095 26.8933 379.095 26.424C379.095 25.7413 378.797 25.2827 378.199 25.048C377.602 24.792 376.77 24.5467 375.703 24.312C375.021 24.1627 374.327 23.9813 373.623 23.768C372.919 23.5547 372.269 23.288 371.671 22.968C371.095 22.6267 370.626 22.2 370.263 21.688C369.901 21.1547 369.719 20.504 369.719 19.736C369.719 18.328 370.274 17.144 371.383 16.184C372.514 15.224 374.093 14.744 376.119 14.744C377.997 14.744 379.49 15.1813 380.599 16.056C381.73 16.9307 382.402 18.136 382.615 19.672H378.743C378.509 18.4987 377.623 17.912 376.087 17.912C375.319 17.912 374.722 18.0613 374.295 18.36C373.89 18.6587 373.687 19.032 373.687 19.48C373.687 19.9493 373.997 20.3227 374.615 20.6C375.234 20.8773 376.055 21.1333 377.079 21.368C378.189 21.624 379.202 21.912 380.119 22.232C381.058 22.5307 381.805 22.9893 382.359 23.608C382.914 24.2053 383.191 25.0693 383.191 26.2C383.213 27.1813 382.957 28.0667 382.423 28.856C381.89 29.6453 381.122 30.264 380.119 30.712C379.117 31.16 377.933 31.384 376.567 31.384Z" fill="#414141"/>
<path d="M177.959 31.384C176.465 31.384 175.132 31.0213 173.959 30.296C172.785 29.5707 171.857 28.5787 171.175 27.32C170.492 26.0613 170.151 24.632 170.151 23.032C170.151 21.432 170.492 20.0133 171.175 18.776C171.857 17.5173 172.785 16.536 173.959 15.832C175.132 15.1067 176.465 14.744 177.959 14.744C179.153 14.744 180.199 14.968 181.095 15.416C181.991 15.864 182.716 16.4933 183.271 17.304V7.96H187.367V31H183.719L183.271 28.728C182.759 29.432 182.076 30.0507 181.223 30.584C180.391 31.1173 179.303 31.384 177.959 31.384ZM178.823 27.8C180.145 27.8 181.223 27.3627 182.055 26.488C182.908 25.592 183.335 24.4507 183.335 23.064C183.335 21.6773 182.908 20.5467 182.055 19.672C181.223 18.776 180.145 18.328 178.823 18.328C177.521 18.328 176.444 18.7653 175.591 19.64C174.737 20.5147 174.311 21.6453 174.311 23.032C174.311 24.4187 174.737 25.56 175.591 26.456C176.444 27.352 177.521 27.8 178.823 27.8ZM191.186 12.664C190.439 12.664 189.82 12.44 189.33 11.992C188.86 11.544 188.626 10.9787 188.626 10.296C188.626 9.61333 188.86 9.05867 189.33 8.632C189.82 8.184 190.439 7.96 191.186 7.96C191.932 7.96 192.54 8.184 193.01 8.632C193.5 9.05867 193.746 9.61333 193.746 10.296C193.746 10.9787 193.5 11.544 193.01 11.992C192.54 12.44 191.932 12.664 191.186 12.664ZM189.138 31V15.128H193.234V31H189.138ZM201.509 31.384C200.101 31.384 198.863 31.16 197.797 30.712C196.73 30.2427 195.877 29.6027 195.237 28.792C194.597 27.9813 194.213 27.0427 194.085 25.976H198.213C198.341 26.5947 198.682 27.128 199.237 27.576C199.813 28.0027 200.549 28.216 201.445 28.216C202.341 28.216 202.991 28.0347 203.397 27.672C203.823 27.3093 204.037 26.8933 204.037 26.424C204.037 25.7413 203.738 25.2827 203.141 25.048C202.543 24.792 201.711 24.5467 200.645 24.312C199.962 24.1627 199.269 23.9813 198.565 23.768C197.861 23.5547 197.21 23.288 196.613 22.968C196.037 22.6267 195.567 22.2 195.205 21.688C194.842 21.1547 194.661 20.504 194.661 19.736C194.661 18.328 195.215 17.144 196.325 16.184C197.455 15.224 199.034 14.744 201.061 14.744C202.938 14.744 204.431 15.1813 205.541 16.056C206.671 16.9307 207.343 18.136 207.557 19.672H203.685C203.45 18.4987 202.565 17.912 201.029 17.912C200.261 17.912 199.663 18.0613 199.237 18.36C198.831 18.6587 198.629 19.032 198.629 19.48C198.629 19.9493 198.938 20.3227 199.557 20.6C200.175 20.8773 200.997 21.1333 202.021 21.368C203.13 21.624 204.143 21.912 205.061 22.232C205.999 22.5307 206.746 22.9893 207.301 23.608C207.855 24.2053 208.133 25.0693 208.133 26.2C208.154 27.1813 207.898 28.0667 207.365 28.856C206.831 29.6453 206.063 30.264 205.061 30.712C204.058 31.16 202.874 31.384 201.509 31.384ZM216.977 31.384C215.356 31.384 213.927 31.032 212.689 30.328C211.452 29.624 210.471 28.6427 209.745 27.384C209.041 26.1253 208.689 24.6853 208.689 23.064C208.689 21.4427 209.041 20.0027 209.745 18.744C210.471 17.4853 211.452 16.504 212.689 15.8C213.927 15.096 215.356 14.744 216.977 14.744C219.004 14.744 220.711 15.2773 222.097 16.344C223.484 17.3893 224.369 18.84 224.753 20.696H220.433C220.22 19.928 219.793 19.3307 219.153 18.904C218.535 18.456 217.799 18.232 216.945 18.232C215.815 18.232 214.855 18.6587 214.065 19.512C213.276 20.3653 212.881 21.5493 212.881 23.064C212.881 24.5787 213.276 25.7627 214.065 26.616C214.855 27.4693 215.815 27.896 216.945 27.896C217.799 27.896 218.535 27.6827 219.153 27.256C219.793 26.8293 220.22 26.2213 220.433 25.432H224.753C224.369 27.224 223.484 28.664 222.097 29.752C220.711 30.84 219.004 31.384 216.977 31.384ZM233.445 31.384C231.909 31.384 230.522 31.032 229.285 30.328C228.069 29.624 227.098 28.6533 226.373 27.416C225.669 26.1573 225.317 24.7067 225.317 23.064C225.317 21.4213 225.679 19.9813 226.405 18.744C227.13 17.4853 228.101 16.504 229.317 15.8C230.554 15.096 231.941 14.744 233.477 14.744C234.991 14.744 236.357 15.096 237.573 15.8C238.81 16.504 239.781 17.4853 240.485 18.744C241.21 19.9813 241.573 21.4213 241.573 23.064C241.573 24.7067 241.21 26.1573 240.485 27.416C239.781 28.6533 238.81 29.624 237.573 30.328C236.335 31.032 234.959 31.384 233.445 31.384ZM233.445 27.832C234.511 27.832 235.439 27.4373 236.229 26.648C237.018 25.8373 237.413 24.6427 237.413 23.064C237.413 21.4853 237.018 20.3013 236.229 19.512C235.439 18.7013 234.522 18.296 233.477 18.296C232.389 18.296 231.45 18.7013 230.661 19.512C229.893 20.3013 229.509 21.4853 229.509 23.064C229.509 24.6427 229.893 25.8373 230.661 26.648C231.45 27.4373 232.378 27.832 233.445 27.832ZM248.627 31.384C246.643 31.384 245.107 30.7653 244.019 29.528C242.952 28.2907 242.419 26.4773 242.419 24.088V15.128H246.483V23.704C246.483 25.0693 246.76 26.1147 247.315 26.84C247.87 27.5653 248.744 27.928 249.939 27.928C251.07 27.928 251.998 27.5227 252.723 26.712C253.47 25.9013 253.843 24.7707 253.843 23.32V15.128H257.939V31H254.323L254.003 28.312C253.512 29.2507 252.798 29.9973 251.859 30.552C250.942 31.1067 249.864 31.384 248.627 31.384ZM259.584 31V15.128H263.2L263.52 17.816C264.01 16.8773 264.714 16.1307 265.632 15.576C266.57 15.0213 267.669 14.744 268.928 14.744C270.89 14.744 272.416 15.3627 273.504 16.6C274.592 17.8373 275.136 19.6507 275.136 22.04V31H271.04V22.424C271.04 21.0587 270.762 20.0133 270.208 19.288C269.653 18.5627 268.789 18.2 267.616 18.2C266.464 18.2 265.514 18.6053 264.768 19.416C264.042 20.2267 263.68 21.3573 263.68 22.808V31H259.584ZM283.565 31C281.901 31 280.567 30.5947 279.565 29.784C278.562 28.9733 278.061 27.5333 278.061 25.464V18.552H275.341V15.128H278.061L278.541 10.872H282.157V15.128H286.445V18.552H282.157V25.496C282.157 26.264 282.317 26.7973 282.637 27.096C282.978 27.3733 283.554 27.512 284.365 27.512H286.349V31H283.565ZM293.961 31.384C292.553 31.384 291.316 31.16 290.249 30.712C289.183 30.2427 288.329 29.6027 287.689 28.792C287.049 27.9813 286.665 27.0427 286.537 25.976H290.665C290.793 26.5947 291.135 27.128 291.689 27.576C292.265 28.0027 293.001 28.216 293.897 28.216C294.793 28.216 295.444 28.0347 295.849 27.672C296.276 27.3093 296.489 26.8933 296.489 26.424C296.489 25.7413 296.191 25.2827 295.593 25.048C294.996 24.792 294.164 24.5467 293.097 24.312C292.415 24.1627 291.721 23.9813 291.017 23.768C290.313 23.5547 289.663 23.288 289.065 22.968C288.489 22.6267 288.02 22.2 287.657 21.688C287.295 21.1547 287.113 20.504 287.113 19.736C287.113 18.328 287.668 17.144 288.777 16.184C289.908 15.224 291.487 14.744 293.513 14.744C295.391 14.744 296.884 15.1813 297.993 16.056C299.124 16.9307 299.796 18.136 300.009 19.672H296.137C295.903 18.4987 295.017 17.912 293.481 17.912C292.713 17.912 292.116 18.0613 291.689 18.36C291.284 18.6587 291.081 19.032 291.081 19.48C291.081 19.9493 291.391 20.3227 292.009 20.6C292.628 20.8773 293.449 21.1333 294.473 21.368C295.583 21.624 296.596 21.912 297.513 22.232C298.452 22.5307 299.199 22.9893 299.753 23.608C300.308 24.2053 300.585 25.0693 300.585 26.2C300.607 27.1813 300.351 28.0667 299.817 28.856C299.284 29.6453 298.516 30.264 297.513 30.712C296.511 31.16 295.327 31.384 293.961 31.384Z" fill="#BDBDBD"/>
<path d="M41.9344 14.2734V11.4844C40.3102 11.4844 38.9813 10.1555 38.9813 8.53125H3.01875V8.62641C2.96625 10.208 1.66031 11.4844 0.0689087 11.4844V14.2734C1.22391 14.677 2.05735 15.773 2.05735 17.0625C2.05735 18.352 1.22063 19.448 0.0689087 19.8516V22.808C1.22391 23.2116 2.05735 24.3075 2.05735 25.597C2.05735 26.8833 1.22063 27.9825 0.0689087 28.3861V31.1719C1.66688 31.1719 2.96625 32.4417 3.01547 34.0298V34.125H38.978V34.1217C38.978 32.4909 40.3003 31.1719 41.9311 31.1719V28.3828C40.7761 27.9792 39.9427 26.8833 39.9427 25.5938C39.9427 24.3075 40.7794 23.2083 41.9311 22.8047V19.8516C40.7761 19.448 39.9427 18.352 39.9427 17.0625C39.9427 15.773 40.7794 14.677 41.9344 14.2734Z" fill="#4766FF"/>
<path d="M14.047 11.7173V31.4048M27.8119 11.5927V31.2802M35.3161 31.2802H6.68391C6.16547 31.2802 5.74219 30.8569 5.74219 30.3384V12.5344C5.74219 12.0159 6.16547 11.5927 6.68391 11.5927H35.3128C35.8313 11.5927 36.2545 12.0159 36.2545 12.5344V30.3351C36.255 30.4588 36.231 30.5814 36.1841 30.6958C36.1372 30.8102 36.0682 30.9143 35.981 31.002C35.8939 31.0898 35.7903 31.1595 35.6762 31.2072C35.5621 31.2549 35.4398 31.2797 35.3161 31.2802Z" stroke="#A9C0FF" stroke-width="1.23675" stroke-miterlimit="10"/>
</svg>
