<?xml version="1.0" standalone="no"?>
<!DOCTYPE svg PUBLIC "-//W3C//DTD SVG 20010904//EN"
 "http://www.w3.org/TR/2001/REC-SVG-20010904/DTD/svg10.dtd">
<svg version="1.0" xmlns="http://www.w3.org/2000/svg"
 width="700.000000pt" height="700.000000pt" viewBox="0 0 700.000000 700.000000"
 preserveAspectRatio="xMidYMid meet">
<metadata>
Created by potrace 1.14, written by Peter Selinger 2001-2017
</metadata>
<g transform="translate(0.000000,700.000000) scale(0.100000,-0.100000)"
fill="#000000" stroke="none">
<path d="M502 5541 c-6 -98 -66 -231 -139 -305 -77 -79 -184 -132 -293 -145
l-55 -6 -3 -230 -2 -230 67 -35 c158 -81 259 -244 264 -426 2 -85 -8 -129 -51
-220 -50 -104 -130 -184 -233 -233 l-47 -23 0 -244 0 -245 37 -16 c174 -72
296 -258 294 -449 -1 -182 -106 -353 -266 -435 l-65 -34 2 -230 3 -229 45 -4
c106 -9 236 -73 312 -156 56 -60 110 -175 123 -260 l11 -71 2992 -2 c2282 -1
2994 1 2996 10 2 7 8 42 14 80 26 167 157 319 328 377 31 11 78 20 105 21 l49
2 0 231 0 231 -64 33 c-276 143 -353 504 -158 743 42 53 118 112 180 141 l42
20 0 244 0 243 -64 32 c-161 80 -267 252 -267 433 0 186 101 352 268 439 l63
32 0 230 0 231 -32 2 c-235 16 -428 200 -457 436 l-6 51 -2996 1 -2995 1 -2
-36z"/>
</g>
</svg>
